<svg xmlns="http://www.w3.org/2000/svg" viewBox="0 0 1200 1800" font-family="Arial, sans-serif">
  <!-- Title -->
  <text x="600" y="30" font-size="24" font-weight="bold" text-anchor="middle" fill="#2c3e50">
    Week 1 - FamilyChain Architecture
  </text>

  <!-- Development Environment Layer -->
  <rect x="50" y="60" width="1100" height="220" fill="#ecf0f1" stroke="#34495e" stroke-width="2" rx="5"/>
  <text x="600" y="85" font-size="18" font-weight="bold" text-anchor="middle" fill="#2c3e50">
    Development Environment
  </text>

  <!-- VS Code -->
  <rect x="480" y="100" width="240" height="80" fill="#007acc" stroke="#005a9e" stroke-width="2" rx="5"/>
  <text x="600" y="130" font-size="16" font-weight="bold" text-anchor="middle" fill="white">VS Code</text>
  <text x="600" y="150" font-size="12" text-anchor="middle" fill="white">(Code Editor)</text>
  <text x="600" y="170" font-size="11" text-anchor="middle" fill="#e0e0e0">You write code here</text>

  <!-- File Types -->
  <rect x="100" y="200" width="140" height="60" fill="#3498db" stroke="#2980b9" stroke-width="2" rx="5"/>
  <text x="170" y="225" font-size="14" font-weight="bold" text-anchor="middle" fill="white">.sol</text>
  <text x="170" y="245" font-size="11" text-anchor="middle" fill="white">Smart Contracts</text>

  <rect x="270" y="200" width="140" height="60" fill="#3498db" stroke="#2980b9" stroke-width="2" rx="5"/>
  <text x="340" y="225" font-size="14" font-weight="bold" text-anchor="middle" fill="white">.ts</text>
  <text x="340" y="245" font-size="11" text-anchor="middle" fill="white">Tests &amp; Scripts</text>

  <rect x="440" y="200" width="140" height="60" fill="#3498db" stroke="#2980b9" stroke-width="2" rx="5"/>
  <text x="510" y="225" font-size="14" font-weight="bold" text-anchor="middle" fill="white">.json</text>
  <text x="510" y="245" font-size="11" text-anchor="middle" fill="white">Config Files</text>

  <rect x="610" y="200" width="140" height="60" fill="#3498db" stroke="#2980b9" stroke-width="2" rx="5"/>
  <text x="680" y="225" font-size="14" font-weight="bold" text-anchor="middle" fill="white">.md</text>
  <text x="680" y="245" font-size="11" text-anchor="middle" fill="white">Documentation</text>

  <!-- Arrows from VS Code to files -->
  <line x1="550" y1="180" x2="170" y2="200" stroke="#34495e" stroke-width="2" marker-end="url(#arrowhead)"/>
  <line x1="570" y1="180" x2="340" y2="200" stroke="#34495e" stroke-width="2" marker-end="url(#arrowhead)"/>
  <line x1="600" y1="180" x2="510" y2="200" stroke="#34495e" stroke-width="2" marker-end="url(#arrowhead)"/>
  <line x1="630" y1="180" x2="680" y2="200" stroke="#34495e" stroke-width="2" marker-end="url(#arrowhead)"/>

  <!-- Runtime Layer -->
  <rect x="50" y="310" width="1100" height="280" fill="#d5dbdb" stroke="#34495e" stroke-width="2" rx="5"/>
  <text x="600" y="335" font-size="18" font-weight="bold" text-anchor="middle" fill="#2c3e50">
    Runtime Layer
  </text>

  <!-- Node.js -->
  <rect x="400" y="350" width="400" height="60" fill="#68a063" stroke="#5a8c56" stroke-width="2" rx="5"/>
  <text x="600" y="375" font-size="16" font-weight="bold" text-anchor="middle" fill="white">Node.js v22.14.0</text>
  <text x="600" y="395" font-size="12" text-anchor="middle" fill="white">JavaScript/TypeScript Runtime</text>

  <!-- npm -->
  <rect x="400" y="430" width="400" height="50" fill="#cb3837" stroke="#a32f2d" stroke-width="2" rx="5"/>
  <text x="600" y="455" font-size="16" font-weight="bold" text-anchor="middle" fill="white">npm v11.6.2</text>
  <text x="600" y="472" font-size="11" text-anchor="middle" fill="white">Package Manager</text>

  <!-- Key Libraries -->
  <rect x="100" y="510" width="280" height="60" fill="#9b59b6" stroke="#7d3c98" stroke-width="2" rx="5"/>
  <text x="240" y="535" font-size="15" font-weight="bold" text-anchor="middle" fill="white">Hardhat 3.0.8</text>
  <text x="240" y="555" font-size="11" text-anchor="middle" fill="white">Smart Contract Framework</text>

  <rect x="410" y="510" width="280" height="60" fill="#e74c3c" stroke="#c0392b" stroke-width="2" rx="5"/>
  <text x="550" y="535" font-size="15" font-weight="bold" text-anchor="middle" fill="white">ethers.js v6.15.0</text>
  <text x="550" y="555" font-size="11" text-anchor="middle" fill="white">Web3 Library</text>

  <rect x="720" y="510" width="280" height="60" fill="#3498db" stroke="#2980b9" stroke-width="2" rx="5"/>
  <text x="860" y="535" font-size="15" font-weight="bold" text-anchor="middle" fill="white">TypeScript ~5.8.0</text>
  <text x="860" y="555" font-size="11" text-anchor="middle" fill="white">Type-safe JavaScript</text>

  <!-- Arrows Runtime Layer -->
  <line x1="600" y1="410" x2="600" y2="430" stroke="#34495e" stroke-width="2" marker-end="url(#arrowhead)"/>
  <line x1="550" y1="480" x2="240" y2="510" stroke="#34495e" stroke-width="2" marker-end="url(#arrowhead)"/>
  <line x1="600" y1="480" x2="550" y2="510" stroke="#34495e" stroke-width="2" marker-end="url(#arrowhead)"/>
  <line x1="650" y1="480" x2="860" y2="510" stroke="#34495e" stroke-width="2" marker-end="url(#arrowhead)"/>

  <!-- Hardhat Framework Layer -->
  <rect x="50" y="620" width="1100" height="280" fill="#f9e8f5" stroke="#34495e" stroke-width="2" rx="5"/>
  <text x="600" y="645" font-size="18" font-weight="bold" text-anchor="middle" fill="#2c3e50">
    Hardhat Framework
  </text>

  <!-- hardhat.config.ts -->
  <rect x="350" y="660" width="500" height="60" fill="#8e44ad" stroke="#71368a" stroke-width="2" rx="5"/>
  <text x="600" y="685" font-size="15" font-weight="bold" text-anchor="middle" fill="white">hardhat.config.ts</text>
  <text x="600" y="702" font-size="10" text-anchor="middle" fill="white">Network config • Solidity settings • Plugins</text>

  <!-- Hardhat Commands -->
  <rect x="100" y="750" width="220" height="70" fill="#9b59b6" stroke="#7d3c98" stroke-width="2" rx="5"/>
  <text x="210" y="775" font-size="14" font-weight="bold" text-anchor="middle" fill="white">npx hardhat</text>
  <text x="210" y="795" font-size="13" font-weight="bold" text-anchor="middle" fill="white">build</text>
  <text x="210" y="812" font-size="10" text-anchor="middle" fill="white">Compile contracts</text>

  <rect x="350" y="750" width="220" height="70" fill="#9b59b6" stroke="#7d3c98" stroke-width="2" rx="5"/>
  <text x="460" y="775" font-size="14" font-weight="bold" text-anchor="middle" fill="white">npx hardhat</text>
  <text x="460" y="795" font-size="13" font-weight="bold" text-anchor="middle" fill="white">test</text>
  <text x="460" y="812" font-size="10" text-anchor="middle" fill="white">Run test suite</text>

  <rect x="600" y="750" width="220" height="70" fill="#9b59b6" stroke="#7d3c98" stroke-width="2" rx="5"/>
  <text x="710" y="775" font-size="14" font-weight="bold" text-anchor="middle" fill="white">npx hardhat</text>
  <text x="710" y="795" font-size="13" font-weight="bold" text-anchor="middle" fill="white">run scripts/</text>
  <text x="710" y="812" font-size="10" text-anchor="middle" fill="white">Deploy contracts</text>

  <!-- Artifacts -->
  <rect x="850" y="750" width="220" height="70" fill="#f39c12" stroke="#d68910" stroke-width="2" rx="5"/>
  <text x="960" y="775" font-size="14" font-weight="bold" text-anchor="middle" fill="white">Artifacts</text>
  <text x="960" y="795" font-size="11" text-anchor="middle" fill="white">ABI + Bytecode</text>
  <text x="960" y="812" font-size="10" text-anchor="middle" fill="white">Compiled output</text>

  <!-- Arrows Hardhat Layer -->
  <line x1="600" y1="720" x2="210" y2="750" stroke="#34495e" stroke-width="2" marker-end="url(#arrowhead)"/>
  <line x1="600" y1="720" x2="460" y2="750" stroke="#34495e" stroke-width="2" marker-end="url(#arrowhead)"/>
  <line x1="600" y1="720" x2="710" y2="750" stroke="#34495e" stroke-width="2" marker-end="url(#arrowhead)"/>
  <line x1="320" y1="790" x2="850" y2="790" stroke="#34495e" stroke-width="2" marker-end="url(#arrowhead)"/>

  <!-- Blockchain Networks Layer -->
  <rect x="50" y="930" width="1100" height="340" fill="#e8f6f3" stroke="#34495e" stroke-width="2" rx="5"/>
  <text x="600" y="955" font-size="18" font-weight="bold" text-anchor="middle" fill="#2c3e50">
    Blockchain Networks
  </text>

  <!-- Local Development -->
  <text x="300" y="985" font-size="14" font-weight="bold" text-anchor="middle" fill="#16a085">LOCAL (Development)</text>
  <rect x="100" y="995" width="400" height="110" fill="#1abc9c" stroke="#16a085" stroke-width="2" rx="5"/>
  <text x="300" y="1020" font-size="15" font-weight="bold" text-anchor="middle" fill="white">Hardhat Network</text>
  <text x="300" y="1040" font-size="11" text-anchor="middle" fill="white">• In-memory blockchain</text>
  <text x="300" y="1058" font-size="11" text-anchor="middle" fill="white">• Instant mining, no gas</text>
  <text x="300" y="1076" font-size="11" text-anchor="middle" fill="white">• Resets after tests</text>
  <text x="300" y="1094" font-size="10" text-anchor="middle" fill="white">localhost:8545</text>

  <!-- Public Testnet -->
  <text x="850" y="985" font-size="14" font-weight="bold" text-anchor="middle" fill="#2980b9">PUBLIC (Testnet)</text>
  <rect x="650" y="995" width="400" height="110" fill="#3498db" stroke="#2980b9" stroke-width="2" rx="5"/>
  <text x="850" y="1020" font-size="15" font-weight="bold" text-anchor="middle" fill="white">Sepolia Testnet</text>
  <text x="850" y="1040" font-size="11" text-anchor="middle" fill="white">• Public Ethereum testnet</text>
  <text x="850" y="1058" font-size="11" text-anchor="middle" fill="white">• Free test ETH</text>
  <text x="850" y="1076" font-size="11" text-anchor="middle" fill="white">• Persistent blockchain</text>
  <text x="850" y="1094" font-size="10" text-anchor="middle" fill="white">Anyone can access</text>

  <!-- RPC Providers -->
  <rect x="650" y="1125" width="180" height="60" fill="#27ae60" stroke="#229954" stroke-width="2" rx="5"/>
  <text x="740" y="1150" font-size="14" font-weight="bold" text-anchor="middle" fill="white">Infura</text>
  <text x="740" y="1168" font-size="10" text-anchor="middle" fill="white">RPC Provider</text>

  <rect x="870" y="1125" width="180" height="60" fill="#27ae60" stroke="#229954" stroke-width="2" rx="5"/>
  <text x="960" y="1150" font-size="14" font-weight="bold" text-anchor="middle" fill="white">Alchemy</text>
  <text x="960" y="1168" font-size="10" text-anchor="middle" fill="white">RPC Provider</text>

  <!-- ethers.js connection -->
  <rect x="350" y="1210" width="200" height="40" fill="#e74c3c" stroke="#c0392b" stroke-width="2" rx="5"/>
  <text x="450" y="1235" font-size="13" font-weight="bold" text-anchor="middle" fill="white">ethers.js connects to:</text>

  <!-- Arrows Networks -->
  <line x1="850" y1="1105" x2="740" y2="1125" stroke="#34495e" stroke-width="2" marker-end="url(#arrowhead)"/>
  <line x1="850" y1="1105" x2="960" y2="1125" stroke="#34495e" stroke-width="2" marker-end="url(#arrowhead)"/>
  <line x1="450" y1="1210" x2="300" y2="1105" stroke="#34495e" stroke-width="2" marker-end="url(#arrowhead)"/>
  <line x1="450" y1="1210" x2="850" y2="1105" stroke="#34495e" stroke-width="2" marker-end="url(#arrowhead)"/>

  <!-- User Interaction Layer -->
  <rect x="50" y="1300" width="1100" height="200" fill="#fef5e7" stroke="#34495e" stroke-width="2" rx="5"/>
  <text x="600" y="1325" font-size="18" font-weight="bold" text-anchor="middle" fill="#2c3e50">
    User Interaction
  </text>

  <!-- MetaMask -->
  <rect x="150" y="1345" width="400" height="130" fill="#f39c12" stroke="#d68910" stroke-width="2" rx="5"/>
  <text x="350" y="1375" font-size="16" font-weight="bold" text-anchor="middle" fill="white">MetaMask</text>
  <text x="350" y="1395" font-size="12" text-anchor="middle" fill="white">Browser Wallet</text>
  <text x="350" y="1420" font-size="11" text-anchor="middle" fill="white">• Store private keys</text>
  <text x="350" y="1438" font-size="11" text-anchor="middle" fill="white">• Sign transactions</text>
  <text x="350" y="1456" font-size="11" text-anchor="middle" fill="white">• Connect to networks</text>

  <!-- Etherscan -->
  <rect x="650" y="1345" width="400" height="130" fill="#27ae60" stroke="#229954" stroke-width="2" rx="5"/>
  <text x="850" y="1375" font-size="16" font-weight="bold" text-anchor="middle" fill="white">Etherscan</text>
  <text x="850" y="1395" font-size="12" text-anchor="middle" fill="white">Blockchain Explorer</text>
  <text x="850" y="1420" font-size="11" text-anchor="middle" fill="white">• View transactions</text>
  <text x="850" y="1438" font-size="11" text-anchor="middle" fill="white">• Verify contracts</text>
  <text x="850" y="1456" font-size="11" text-anchor="middle" fill="white">• Get test ETH</text>

  <!-- Version Control -->
  <rect x="50" y="1530" width="1100" height="140" fill="#ecf0f1" stroke="#34495e" stroke-width="2" rx="5"/>
  <text x="600" y="1555" font-size="18" font-weight="bold" text-anchor="middle" fill="#2c3e50">
    Version Control
  </text>

  <!-- Git -->
  <rect x="250" y="1580" width="250" height="70" fill="#f05032" stroke="#c0392b" stroke-width="2" rx="5"/>
  <text x="375" y="1610" font-size="15" font-weight="bold" text-anchor="middle" fill="white">Git</text>
  <text x="375" y="1630" font-size="11" text-anchor="middle" fill="white">Local version control</text>

  <!-- GitHub -->
  <rect x="550" y="1580" width="250" height="70" fill="#333" stroke="#000" stroke-width="2" rx="5"/>
  <text x="675" y="1610" font-size="15" font-weight="bold" text-anchor="middle" fill="white">GitHub</text>
  <text x="675" y="1630" font-size="11" text-anchor="middle" fill="white">Remote repository</text>

  <!-- Arrow Git to GitHub -->
  <line x1="500" y1="1615" x2="550" y2="1615" stroke="#34495e" stroke-width="2" marker-end="url(#arrowhead)"/>

  <!-- Flow arrows between major sections -->
  <line x1="400" y1="280" x2="400" y2="310" stroke="#e74c3c" stroke-width="3" marker-end="url(#arrowhead-red)"/>
  <line x1="240" y1="590" x2="240" y2="620" stroke="#e74c3c" stroke-width="3" marker-end="url(#arrowhead-red)"/>
  <line x1="960" y1="900" x2="960" y2="930" stroke="#e74c3c" stroke-width="3" marker-end="url(#arrowhead-red)"/>
  <line x1="850" y1="1270" x2="850" y2="1300" stroke="#e74c3c" stroke-width="3" marker-end="url(#arrowhead-red)"/>

  <!-- Legend -->
  <rect x="50" y="1700" width="1100" height="80" fill="#f8f9fa" stroke="#34495e" stroke-width="2" rx="5"/>
  <text x="600" y="1725" font-size="16" font-weight="bold" text-anchor="middle" fill="#2c3e50">
    Development Flow: Write Code → Build → Test → Deploy → Verify → Interact
  </text>
  <text x="600" y="1750" font-size="13" text-anchor="middle" fill="#7f8c8d">
    🔵 Local Development (Hardhat Network)  →  🔵 Public Testing (Sepolia)  →  🔴 Production (Mainnet)
  </text>
  <text x="600" y="1770" font-size="11" text-anchor="middle" fill="#95a5a6">
    Week 1 Focus: Environment setup, blockchain theory, first smart contract deployment
  </text>

  <!-- Arrow markers -->
  <defs>
    <marker id="arrowhead" markerWidth="10" markerHeight="10" refX="9" refY="3" orient="auto">
      <polygon points="0 0, 10 3, 0 6" fill="#34495e" />
    </marker>
    <marker id="arrowhead-red" markerWidth="12" markerHeight="12" refX="11" refY="3" orient="auto">
      <polygon points="0 0, 12 3, 0 6" fill="#e74c3c" />
    </marker>
  </defs>
</svg>
